<svg width="80" height="120" viewBox="0 0 80 120" fill="none" xmlns="http://www.w3.org/2000/svg">
<g clip-path="url(#clip0_15_39)">
<path d="M19.5232 0H38.9679V38.8898H19.5234C-6.11952 37.8874 -6.37851 1.05281 19.5232 0ZM19.5232 79.443H38.9679V40.5532H19.5234C-6.37827 41.606 -6.11929 78.4406 19.5234 79.443H19.5232ZM60.0764 0H40.6313V38.8898H60.0764C86.0644 37.4991 85.7405 0.793828 60.0764 0ZM38.9679 100.552V81.1064H19.5234C3.65579 81.1064 -6.37827 99.7102 4.65727 113.072C15.1788 126.317 38.9681 119.714 38.9681 100.552H38.9679ZM79.5609 59.9981C79.5609 45.0544 63.2723 35.6641 50.3121 43.136C37.3519 50.6079 37.3516 69.3886 50.3121 76.8605C63.2726 84.3323 79.5609 74.9419 79.5609 59.9981Z" fill="#999999"/>
</g>
<defs>
<clipPath id="clip0_15_39">
<rect width="79.6875" height="120" fill="white"/>
</clipPath>
</defs>
</svg>
