<svg width="120" height="120" viewBox="0 0 120 120" fill="none" xmlns="http://www.w3.org/2000/svg">
<path fill-rule="evenodd" clip-rule="evenodd" d="M0 0H120V120H0V0ZM91.735 100.6C86.17 100.6 83.025 97.7 80.61 93.75L71.445 99.075C74.755 105.615 81.52 110.605 91.995 110.605C102.705 110.605 110.68 105.045 110.68 94.89C110.68 85.475 105.27 81.29 95.69 77.175L92.87 75.97C88.03 73.87 85.935 72.505 85.935 69.12C85.935 66.385 88.035 64.29 91.335 64.29C94.57 64.29 96.655 65.655 98.59 69.12L107.37 63.485C103.655 56.95 98.505 54.455 91.335 54.455C81.265 54.455 74.82 60.895 74.82 69.355C74.82 78.53 80.22 82.875 88.36 86.34L91.18 87.55C96.325 89.8 99.39 91.17 99.39 95.035C99.39 98.265 96.405 100.6 91.735 100.6ZM48.035 100.525C44.16 100.525 42.545 97.875 40.775 94.725L31.595 100.285C34.255 105.915 39.485 110.585 48.51 110.585C58.505 110.585 65.35 105.27 65.35 93.595V55.095H54.075V93.445C54.075 99.08 51.735 100.525 48.03 100.525H48.035Z" fill="#999999"/>
</svg>
