<svg width="531" height="160" viewBox="0 0 531 160" fill="none" xmlns="http://www.w3.org/2000/svg">
<path d="M103.361 8.13879H468.941L379.828 159.662H0L103.361 8.13879Z" fill="white"/>
<path d="M67.6939 111.276C68.3884 109.97 69.7466 109.154 71.2254 109.154H344.888C347.83 109.154 349.765 112.223 348.497 114.878L336.655 139.672C335.991 141.063 334.587 141.948 333.046 141.948H58.0376C55.0199 141.948 53.089 138.734 54.5061 136.07L67.6939 111.276Z" fill="#E5E5E5"/>
<rect x="79.027" y="122.08" width="244.913" height="7.18119" rx="3.5906" fill="white"/>
<path d="M119.608 0H316.464L253.456 88.3287H59.3296L119.608 0Z" fill="#E5E5E5"/>
<path d="M334.144 0H531L467.992 88.3287H273.865L334.144 0Z" fill="#E5E5E5"/>
<rect x="337.704" y="8.13879" width="159.953" height="7.18119" rx="3.5906" fill="white"/>
<rect x="303.768" y="57.9282" width="108.929" height="7.18119" rx="3.5906" fill="white"/>
<rect x="418.63" y="57.9282" width="43.192" height="7.18119" rx="3.5906" fill="white"/>
<rect x="323.94" y="25.8523" width="77.6031" height="7.18119" rx="3.5906" fill="white"/>
<rect x="311.599" y="43.5659" width="44.6159" height="7.18119" rx="3.5906" fill="white"/>
<rect x="407.476" y="25.8523" width="77.1285" height="7.18119" rx="3.5906" fill="white"/>
<rect x="368.318" y="43.5659" width="103.945" height="7.18119" rx="3.5906" fill="white"/>
</svg>
