<svg width="120" height="120" viewBox="0 0 120 120" fill="none" xmlns="http://www.w3.org/2000/svg">
<path d="M10.75 83.9H18.6C18.7696 83.9018 18.934 83.8419 19.0627 83.7315C19.1915 83.6212 19.2758 83.4678 19.3 83.3L21.05 74.2H27.15C29.7035 74.2639 32.2512 73.9265 34.7 73.2C36.6841 72.5438 38.4953 71.4502 40 70C41.3513 68.7852 42.4844 67.3477 43.35 65.75C44.2062 64.187 44.8134 62.5001 45.15 60.75C45.6812 58.9154 45.7725 56.9814 45.4163 55.1049C45.0601 53.2284 44.2665 51.4624 43.1 49.95C41.7484 48.5766 40.1125 47.5158 38.3072 46.842C36.5019 46.1683 34.5709 45.8979 32.65 46.05H17.65C17.4701 46.0581 17.2981 46.1267 17.162 46.2447C17.0259 46.3626 16.9336 46.5231 16.9 46.7L10 83C9.92358 83.2099 9.92358 83.4401 10 83.65C10.0954 83.7493 10.2135 83.824 10.3442 83.8675C10.4748 83.9111 10.6141 83.9222 10.75 83.9ZM25 53.1H30C30.9513 52.9722 31.9184 53.0346 32.8454 53.2835C33.7724 53.5324 34.6407 53.9629 35.4 54.55C36.25 55.45 36.4 57.15 35.95 59.55C35.6993 61.6972 34.6883 63.6836 33.1 65.15C31.1197 66.4039 28.7867 66.9827 26.45 66.8H22.45L25 53.1ZM74 48.35C71.2931 46.36 67.9415 45.4507 64.6 45.8H58.65L60.3 37C60.3488 36.8986 60.3741 36.7875 60.3741 36.675C60.3741 36.5625 60.3488 36.4514 60.3 36.35C60.1224 36.285 59.9276 36.285 59.75 36.35H51.9C51.7304 36.3483 51.566 36.4082 51.4373 36.5185C51.3085 36.6289 51.2242 36.7822 51.2 36.95L44.3 73.3C44.2518 73.3927 44.2266 73.4956 44.2266 73.6C44.2266 73.7045 44.2518 73.8074 44.3 73.9C44.359 73.9923 44.4403 74.0682 44.5365 74.1207C44.6326 74.1731 44.7405 74.2004 44.85 74.2H52.55C52.7273 74.2005 52.8982 74.1336 53.0281 74.013C53.158 73.8923 53.2373 73.7269 53.25 73.55L57.1 53.2H62.65C64.9 53.2 65.7 53.7 65.95 54C66.1536 54.4914 66.2584 55.0181 66.2584 55.55C66.2584 56.0819 66.1536 56.6086 65.95 57.1L62.9 73.3C62.8518 73.3927 62.8266 73.4956 62.8266 73.6C62.8266 73.7045 62.8518 73.8074 62.9 73.9C62.9621 73.9893 63.0441 74.0629 63.1396 74.115C63.235 74.1671 63.3413 74.1962 63.45 74.2H71.25C71.4299 74.1919 71.6019 74.1233 71.738 74.0054C71.8741 73.8874 71.9664 73.727 72 73.55L75.2 56.55C75.7163 55.1944 75.8771 53.7292 75.6671 52.2939C75.457 50.8585 74.8831 49.5008 74 48.35ZM96.6 45.8H80.95C80.858 45.7932 80.7656 45.8047 80.6781 45.8337C80.5905 45.8627 80.5096 45.9087 80.4399 45.9691C80.3702 46.0295 80.3131 46.1031 80.272 46.1856C80.2308 46.2682 80.2064 46.358 80.2 46.45L72.9 83C72.8545 83.1023 72.831 83.2131 72.831 83.325C72.831 83.437 72.8545 83.5477 72.9 83.65C72.9672 83.7301 73.0515 83.7941 73.1466 83.8374C73.2418 83.8807 73.3455 83.9021 73.45 83.9H81.6C81.778 83.9145 81.9547 83.8605 82.0941 83.7489C82.2336 83.6374 82.3251 83.4768 82.35 83.3L84.2 74.2H90.55C93.1854 74.258 95.8145 73.9209 98.35 73.2C100.533 72.5927 102.55 71.4986 104.25 70C105.646 68.7887 106.829 67.3522 107.75 65.75C108.622 64.1893 109.246 62.5025 109.6 60.75C110.145 58.9137 110.239 56.973 109.873 55.0928C109.507 53.2125 108.693 51.4483 107.5 49.95C106.086 48.5181 104.382 47.4065 102.501 46.6905C100.62 45.9746 98.6081 45.6709 96.6 45.8ZM99.7 59.65C99.4009 61.8151 98.3367 63.8016 96.7 65.25C94.6482 66.5095 92.2503 67.0871 89.85 66.9H85.85L88.55 53.1H93.55C95.5487 52.8551 97.5663 53.3728 99.2 54.55C100 55.45 100 57.15 99.7 59.65Z" fill="#999999"/>
</svg>
